<?xml version="1.0" encoding="UTF-8" standalone="no"?><!DOCTYPE svg PUBLIC "-//W3C//DTD SVG 1.1//EN" "http://www.w3.org/Graphics/SVG/1.1/DTD/svg11.dtd"><!-- Generated by graphviz version 2.40.1 (20161225.0304)
 --><!-- Title: G Pages: 1 --><svg xmlns="http://www.w3.org/2000/svg" xmlns:xlink="http://www.w3.org/1999/xlink" width="1550pt" height="1552pt" viewBox="0.00 0.00 1550.00 1552.00">
<g id="graph0" class="graph" transform="scale(1 1) rotate(0) translate(4 1548)">
<title>G</title>
<polygon fill="#ffffff" stroke="transparent" points="-4,4 -4,-1548 1546,-1548 1546,4 -4,4"/>
<!-- broadcaster -->
<g id="node1" class="node">
<title>broadcaster</title>
<ellipse fill="none" stroke="#000000" cx="702.8672" cy="-746.6982" rx="55.5753" ry="18"/>
<text text-anchor="middle" x="702.8672" y="-742.4982" font-family="Times,serif" font-size="14.00" fill="#000000">broadcaster</text>
</g>
<!-- kr -->
<g id="node2" class="node">
<title>kr</title>
<polygon fill="none" stroke="#000000" points="639.7211,-483.2832 603.7211,-483.2832 603.7211,-447.2832 639.7211,-447.2832 639.7211,-483.2832"/>
<polyline fill="none" stroke="#000000" points="615.7211,-483.2832 603.7211,-471.2832 "/>
<polyline fill="none" stroke="#000000" points="603.7211,-459.2832 615.7211,-447.2832 "/>
<polyline fill="none" stroke="#000000" points="627.7211,-447.2832 639.7211,-459.2832 "/>
<polyline fill="none" stroke="#000000" points="639.7211,-471.2832 627.7211,-483.2832 "/>
<text text-anchor="middle" x="621.7211" y="-461.0832" font-family="Times,serif" font-size="14.00" fill="#000000">kr</text>
</g>
<!-- broadcaster&#45;&gt;kr -->
<g id="edge1" class="edge">
<title>broadcaster-&gt;kr</title>
<path fill="none" stroke="#000000" d="M697.6677,-728.6663C683.9028,-680.9295 646.4348,-550.9905 629.8296,-493.4037"/>
<polygon fill="#000000" stroke="#000000" points="633.116,-492.1679 626.9823,-483.5291 626.39,-494.1074 633.116,-492.1679"/>
</g>
<!-- zb -->
<g id="node3" class="node">
<title>zb</title>
<polygon fill="none" stroke="#000000" points="818.1206,-1093.2862 782.1206,-1093.2862 782.1206,-1057.2862 818.1206,-1057.2862 818.1206,-1093.2862"/>
<polyline fill="none" stroke="#000000" points="794.1206,-1093.2862 782.1206,-1081.2862 "/>
<polyline fill="none" stroke="#000000" points="782.1206,-1069.2862 794.1206,-1057.2862 "/>
<polyline fill="none" stroke="#000000" points="806.1206,-1057.2862 818.1206,-1069.2862 "/>
<polyline fill="none" stroke="#000000" points="818.1206,-1081.2862 806.1206,-1093.2862 "/>
<text text-anchor="middle" x="800.1206" y="-1071.0862" font-family="Times,serif" font-size="14.00" fill="#000000">zb</text>
</g>
<!-- broadcaster&#45;&gt;zb -->
<g id="edge2" class="edge">
<title>broadcaster-&gt;zb</title>
<path fill="none" stroke="#000000" d="M708.2345,-764.8325C724.3744,-819.3641 772.5441,-982.1139 791.9172,-1047.5695"/>
<polygon fill="#000000" stroke="#000000" points="788.5757,-1048.6124 794.7699,-1057.2079 795.2879,-1046.6257 788.5757,-1048.6124"/>
</g>
<!-- sm -->
<g id="node4" class="node">
<title>sm</title>
<polygon fill="none" stroke="#000000" points="440.4776,-869.7267 404.4776,-869.7267 404.4776,-833.7267 440.4776,-833.7267 440.4776,-869.7267"/>
<polyline fill="none" stroke="#000000" points="416.4776,-869.7267 404.4776,-857.7267 "/>
<polyline fill="none" stroke="#000000" points="404.4776,-845.7267 416.4776,-833.7267 "/>
<polyline fill="none" stroke="#000000" points="428.4776,-833.7267 440.4776,-845.7267 "/>
<polyline fill="none" stroke="#000000" points="440.4776,-857.7267 428.4776,-869.7267 "/>
<text text-anchor="middle" x="422.4776" y="-847.5267" font-family="Times,serif" font-size="14.00" fill="#000000">sm</text>
</g>
<!-- broadcaster&#45;&gt;sm -->
<g id="edge3" class="edge">
<title>broadcaster-&gt;sm</title>
<path fill="none" stroke="#000000" d="M666.4986,-760.3211C609.682,-781.6035 501.1055,-822.2742 450.161,-841.3571"/>
<polygon fill="#000000" stroke="#000000" points="448.9097,-838.0882 440.7729,-844.8737 451.3652,-844.6434 448.9097,-838.0882"/>
</g>
<!-- xd -->
<g id="node5" class="node">
<title>xd</title>
<polygon fill="none" stroke="#000000" points="1056.1674,-681.4186 1020.1674,-681.4186 1020.1674,-645.4186 1056.1674,-645.4186 1056.1674,-681.4186"/>
<polyline fill="none" stroke="#000000" points="1032.1674,-681.4186 1020.1674,-669.4186 "/>
<polyline fill="none" stroke="#000000" points="1020.1674,-657.4186 1032.1674,-645.4186 "/>
<polyline fill="none" stroke="#000000" points="1044.1674,-645.4186 1056.1674,-657.4186 "/>
<polyline fill="none" stroke="#000000" points="1056.1674,-669.4186 1044.1674,-681.4186 "/>
<text text-anchor="middle" x="1038.1674" y="-659.2186" font-family="Times,serif" font-size="14.00" fill="#000000">xd</text>
</g>
<!-- broadcaster&#45;&gt;xd -->
<g id="edge4" class="edge">
<title>broadcaster-&gt;xd</title>
<path fill="none" stroke="#000000" d="M747.0466,-735.7252C817.0238,-718.3447 951.4012,-684.969 1009.8512,-670.4515"/>
<polygon fill="#000000" stroke="#000000" points="1010.9875,-673.7757 1019.8489,-667.9684 1009.3001,-666.9822 1010.9875,-673.7757"/>
</g>
<!-- vt -->
<g id="node12" class="node">
<title>vt</title>
<polygon fill="none" stroke="#000000" points="575.4682,-221.9201 548.4682,-203.9201 575.4682,-185.9201 602.4682,-203.9201 575.4682,-221.9201"/>
<polyline fill="none" stroke="#000000" points="557.4682,-209.9201 557.4682,-197.9201 "/>
<polyline fill="none" stroke="#000000" points="566.4682,-191.9201 584.4682,-191.9201 "/>
<polyline fill="none" stroke="#000000" points="593.4682,-197.9201 593.4682,-209.9201 "/>
<polyline fill="none" stroke="#000000" points="584.4682,-215.9201 566.4682,-215.9201 "/>
<text text-anchor="middle" x="575.4682" y="-199.7201" font-family="Times,serif" font-size="14.00" fill="#000000">vt</text>
</g>
<!-- kr&#45;&gt;vt -->
<g id="edge99" class="edge">
<title>kr-&gt;vt</title>
<path fill="none" stroke="#000000" d="M622.1552,-447.102C618.0803,-401.0981 596.8591,-280.0812 583.9925,-228.1495"/>
<polygon fill="#000000" stroke="#000000" points="587.2986,-226.9577 581.3829,-218.1683 580.5263,-228.7284 587.2986,-226.9577"/>
</g>
<!-- hh -->
<g id="node57" class="node">
<title>hh</title>
<polygon fill="none" stroke="#000000" points="552.0288,-347.5216 516.0288,-347.5216 516.0288,-311.5216 552.0288,-311.5216 552.0288,-347.5216"/>
<polyline fill="none" stroke="#000000" points="528.0288,-347.5216 516.0288,-335.5216 "/>
<polyline fill="none" stroke="#000000" points="516.0288,-323.5216 528.0288,-311.5216 "/>
<polyline fill="none" stroke="#000000" points="540.0288,-311.5216 552.0288,-323.5216 "/>
<polyline fill="none" stroke="#000000" points="552.0288,-335.5216 540.0288,-347.5216 "/>
<text text-anchor="middle" x="534.0288" y="-325.3216" font-family="Times,serif" font-size="14.00" fill="#000000">hh</text>
</g>
<!-- kr&#45;&gt;hh -->
<g id="edge98" class="edge">
<title>kr-&gt;hh</title>
<path fill="none" stroke="#000000" d="M610.0762,-447.2551C595.0073,-423.9261 568.6292,-383.0885 551.2437,-356.173"/>
<polygon fill="#000000" stroke="#000000" points="554.0877,-354.1252 545.7218,-347.6242 548.2077,-357.9233 554.0877,-354.1252"/>
</g>
<!-- nl -->
<g id="node18" class="node">
<title>nl</title>
<polygon fill="none" stroke="#000000" points="899.9992,-1332.9211 872.9992,-1314.9211 899.9992,-1296.9211 926.9992,-1314.9211 899.9992,-1332.9211"/>
<polyline fill="none" stroke="#000000" points="881.9992,-1320.9211 881.9992,-1308.9211 "/>
<polyline fill="none" stroke="#000000" points="890.9992,-1302.9211 908.9992,-1302.9211 "/>
<polyline fill="none" stroke="#000000" points="917.9992,-1308.9211 917.9992,-1320.9211 "/>
<polyline fill="none" stroke="#000000" points="908.9992,-1326.9211 890.9992,-1326.9211 "/>
<text text-anchor="middle" x="899.9992" y="-1310.7211" font-family="Times,serif" font-size="14.00" fill="#000000">nl</text>
</g>
<!-- zb&#45;&gt;nl -->
<g id="edge96" class="edge">
<title>zb-&gt;nl</title>
<path fill="none" stroke="#000000" d="M803.7587,-1093.5478C817.6659,-1137.1318 863.2338,-1246.9071 886.5424,-1293.5057"/>
<polygon fill="#000000" stroke="#000000" points="883.4601,-1295.1652 891.1589,-1302.4439 889.6796,-1291.9528 883.4601,-1295.1652"/>
</g>
<!-- rb -->
<g id="node55" class="node">
<title>rb</title>
<polygon fill="none" stroke="#000000" points="918.9186,-1212.338 882.9186,-1212.338 882.9186,-1176.338 918.9186,-1176.338 918.9186,-1212.338"/>
<polyline fill="none" stroke="#000000" points="894.9186,-1212.338 882.9186,-1200.338 "/>
<polyline fill="none" stroke="#000000" points="882.9186,-1188.338 894.9186,-1176.338 "/>
<polyline fill="none" stroke="#000000" points="906.9186,-1176.338 918.9186,-1188.338 "/>
<polyline fill="none" stroke="#000000" points="918.9186,-1200.338 906.9186,-1212.338 "/>
<text text-anchor="middle" x="900.9186" y="-1190.138" font-family="Times,serif" font-size="14.00" fill="#000000">rb</text>
</g>
<!-- zb&#45;&gt;rb -->
<g id="edge97" class="edge">
<title>zb-&gt;rb</title>
<path fill="none" stroke="#000000" d="M815.4297,-1093.3676C832.303,-1113.2966 859.5936,-1145.5294 878.7926,-1168.2051"/>
<polygon fill="#000000" stroke="#000000" points="876.3325,-1170.7161 885.4655,-1176.0864 881.6749,-1166.1929 876.3325,-1170.7161"/>
</g>
<!-- qt -->
<g id="node8" class="node">
<title>qt</title>
<polygon fill="none" stroke="#000000" points="220.8215,-971.7133 193.8215,-953.7133 220.8215,-935.7133 247.8215,-953.7133 220.8215,-971.7133"/>
<polyline fill="none" stroke="#000000" points="202.8215,-959.7133 202.8215,-947.7133 "/>
<polyline fill="none" stroke="#000000" points="211.8215,-941.7133 229.8215,-941.7133 "/>
<polyline fill="none" stroke="#000000" points="238.8215,-947.7133 238.8215,-959.7133 "/>
<polyline fill="none" stroke="#000000" points="229.8215,-965.7133 211.8215,-965.7133 "/>
<text text-anchor="middle" x="220.8215" y="-949.5133" font-family="Times,serif" font-size="14.00" fill="#000000">qt</text>
</g>
<!-- sm&#45;&gt;qt -->
<g id="edge48" class="edge">
<title>sm-&gt;qt</title>
<path fill="none" stroke="#000000" d="M404.2098,-856.5819C366.7141,-871.5297 281.451,-914.4379 241.7837,-938.0886"/>
<polygon fill="#000000" stroke="#000000" points="239.8583,-935.1637 233.1707,-943.3812 243.5231,-941.1277 239.8583,-935.1637"/>
</g>
<!-- nd -->
<g id="node42" class="node">
<title>nd</title>
<polygon fill="none" stroke="#000000" points="302.904,-864.9274 266.904,-864.9274 266.904,-828.9274 302.904,-828.9274 302.904,-864.9274"/>
<polyline fill="none" stroke="#000000" points="278.904,-864.9274 266.904,-852.9274 "/>
<polyline fill="none" stroke="#000000" points="266.904,-840.9274 278.904,-828.9274 "/>
<polyline fill="none" stroke="#000000" points="290.904,-828.9274 302.904,-840.9274 "/>
<polyline fill="none" stroke="#000000" points="302.904,-852.9274 290.904,-864.9274 "/>
<text text-anchor="middle" x="284.904" y="-842.7274" font-family="Times,serif" font-size="14.00" fill="#000000">nd</text>
</g>
<!-- sm&#45;&gt;nd -->
<g id="edge49" class="edge">
<title>sm-&gt;nd</title>
<path fill="none" stroke="#000000" d="M404.2089,-851.0894C380.9796,-850.2791 340.6199,-848.8711 313.3468,-847.9197"/>
<polygon fill="#000000" stroke="#000000" points="313.3642,-844.4182 303.2483,-847.5674 313.1201,-851.414 313.3642,-844.4182"/>
</g>
<!-- dq -->
<g id="node24" class="node">
<title>dq</title>
<polygon fill="none" stroke="#000000" points="1319.8296,-640.3411 1290.7978,-622.3411 1319.8296,-604.3411 1348.8614,-622.3411 1319.8296,-640.3411"/>
<polyline fill="none" stroke="#000000" points="1300.4751,-628.3411 1300.4751,-616.3411 "/>
<polyline fill="none" stroke="#000000" points="1310.1523,-610.3411 1329.5069,-610.3411 "/>
<polyline fill="none" stroke="#000000" points="1339.1841,-616.3411 1339.1841,-628.3411 "/>
<polyline fill="none" stroke="#000000" points="1329.5069,-634.3411 1310.1523,-634.3411 "/>
<text text-anchor="middle" x="1319.8296" y="-618.1411" font-family="Times,serif" font-size="14.00" fill="#000000">dq</text>
</g>
<!-- xd&#45;&gt;dq -->
<g id="edge84" class="edge">
<title>xd-&gt;dq</title>
<path fill="none" stroke="#000000" d="M1056.2898,-664.2991C1103.9259,-661.4423 1232.9516,-642.9106 1290.9323,-630.935"/>
<polygon fill="#000000" stroke="#000000" points="1291.8618,-634.315 1300.8961,-628.7805 1290.3822,-627.4731 1291.8618,-634.315"/>
</g>
<!-- fb -->
<g id="node35" class="node">
<title>fb</title>
<polygon fill="none" stroke="#000000" points="1204.217,-599.4315 1168.217,-599.4315 1168.217,-563.4315 1204.217,-563.4315 1204.217,-599.4315"/>
<polyline fill="none" stroke="#000000" points="1180.217,-599.4315 1168.217,-587.4315 "/>
<polyline fill="none" stroke="#000000" points="1168.217,-575.4315 1180.217,-563.4315 "/>
<polyline fill="none" stroke="#000000" points="1192.217,-563.4315 1204.217,-575.4315 "/>
<polyline fill="none" stroke="#000000" points="1204.217,-587.4315 1192.217,-599.4315 "/>
<text text-anchor="middle" x="1186.217" y="-577.2315" font-family="Times,serif" font-size="14.00" fill="#000000">fb</text>
</g>
<!-- xd&#45;&gt;fb -->
<g id="edge85" class="edge">
<title>xd-&gt;fb</title>
<path fill="none" stroke="#000000" d="M1056.3212,-653.3653C1081.961,-639.1665 1128.981,-613.1278 1158.8636,-596.5793"/>
<polygon fill="#000000" stroke="#000000" points="1160.8622,-599.4735 1167.9147,-591.567 1157.471,-593.3497 1160.8622,-599.4735"/>
</g>
<!-- cf -->
<g id="node6" class="node">
<title>cf</title>
<polygon fill="none" stroke="#000000" points="146.785,-1159.2932 110.785,-1159.2932 110.785,-1123.2932 146.785,-1123.2932 146.785,-1159.2932"/>
<polyline fill="none" stroke="#000000" points="122.785,-1159.2932 110.785,-1147.2932 "/>
<polyline fill="none" stroke="#000000" points="110.785,-1135.2932 122.785,-1123.2932 "/>
<polyline fill="none" stroke="#000000" points="134.785,-1123.2932 146.785,-1135.2932 "/>
<polyline fill="none" stroke="#000000" points="146.785,-1147.2932 134.785,-1159.2932 "/>
<text text-anchor="middle" x="128.785" y="-1137.0932" font-family="Times,serif" font-size="14.00" fill="#000000">cf</text>
</g>
<!-- hl -->
<g id="node7" class="node">
<title>hl</title>
<polygon fill="none" stroke="#000000" points="74.5415,-1105.3178 38.5415,-1105.3178 38.5415,-1069.3178 74.5415,-1069.3178 74.5415,-1105.3178"/>
<polyline fill="none" stroke="#000000" points="50.5415,-1105.3178 38.5415,-1093.3178 "/>
<polyline fill="none" stroke="#000000" points="38.5415,-1081.3178 50.5415,-1069.3178 "/>
<polyline fill="none" stroke="#000000" points="62.5415,-1069.3178 74.5415,-1081.3178 "/>
<polyline fill="none" stroke="#000000" points="74.5415,-1093.3178 62.5415,-1105.3178 "/>
<text text-anchor="middle" x="56.5415" y="-1083.1178" font-family="Times,serif" font-size="14.00" fill="#000000">hl</text>
</g>
<!-- cf&#45;&gt;hl -->
<g id="edge5" class="edge">
<title>cf-&gt;hl</title>
<path fill="none" stroke="#000000" d="M110.5549,-1127.6729C102.1701,-1121.4084 92.0646,-1113.8582 82.8737,-1106.9914"/>
<polygon fill="#000000" stroke="#000000" points="84.8716,-1104.1152 74.7657,-1100.9337 80.6819,-1109.7229 84.8716,-1104.1152"/>
</g>
<!-- cf&#45;&gt;qt -->
<g id="edge6" class="edge">
<title>cf-&gt;qt</title>
<path fill="none" stroke="#000000" d="M137.7775,-1122.9657C154.6352,-1088.6079 190.9531,-1014.5881 209.468,-976.853"/>
<polygon fill="#000000" stroke="#000000" points="212.7156,-978.1796 213.9784,-967.6603 206.4313,-975.0961 212.7156,-978.1796"/>
</g>
<!-- hl&#45;&gt;qt -->
<g id="edge53" class="edge">
<title>hl-&gt;qt</title>
<path fill="none" stroke="#000000" d="M74.75,-1072.5093C105.7315,-1047.3129 168.469,-996.2902 200.7038,-970.0745"/>
<polygon fill="#000000" stroke="#000000" points="203.0204,-972.7018 208.5703,-963.6769 198.6037,-967.2711 203.0204,-972.7018"/>
</g>
<!-- ng -->
<g id="node49" class="node">
<title>ng</title>
<polygon fill="none" stroke="#000000" points="36.1487,-1024.0748 .1487,-1024.0748 .1487,-988.0748 36.1487,-988.0748 36.1487,-1024.0748"/>
<polyline fill="none" stroke="#000000" points="12.1487,-1024.0748 .1487,-1012.0748 "/>
<polyline fill="none" stroke="#000000" points=".1487,-1000.0748 12.1487,-988.0748 "/>
<polyline fill="none" stroke="#000000" points="24.1487,-988.0748 36.1487,-1000.0748 "/>
<polyline fill="none" stroke="#000000" points="36.1487,-1012.0748 24.1487,-1024.0748 "/>
<text text-anchor="middle" x="18.1487" y="-1001.8748" font-family="Times,serif" font-size="14.00" fill="#000000">ng</text>
</g>
<!-- hl&#45;&gt;ng -->
<g id="edge54" class="edge">
<title>hl-&gt;ng</title>
<path fill="none" stroke="#000000" d="M48.0209,-1069.2874C43.0848,-1058.8422 36.7679,-1045.475 31.2154,-1033.7253"/>
<polygon fill="#000000" stroke="#000000" points="34.2153,-1031.8816 26.7782,-1024.3358 27.8864,-1034.8725 34.2153,-1031.8816"/>
</g>
<!-- qt&#45;&gt;sm -->
<g id="edge55" class="edge">
<title>qt-&gt;sm</title>
<path fill="none" stroke="#000000" d="M240.1757,-948.4226C276.418,-933.8147 354.4193,-894.7002 395.6798,-870.7799"/>
<polygon fill="#000000" stroke="#000000" points="397.5553,-873.737 404.377,-865.6305 393.989,-867.7136 397.5553,-873.737"/>
</g>
<!-- jx -->
<g id="node19" class="node">
<title>jx</title>
<polygon fill="none" stroke="#000000" points="230.0234,-1145.3031 194.0234,-1145.3031 194.0234,-1109.3031 230.0234,-1109.3031 230.0234,-1145.3031"/>
<polyline fill="none" stroke="#000000" points="206.0234,-1145.3031 194.0234,-1133.3031 "/>
<polyline fill="none" stroke="#000000" points="194.0234,-1121.3031 206.0234,-1109.3031 "/>
<polyline fill="none" stroke="#000000" points="218.0234,-1109.3031 230.0234,-1121.3031 "/>
<polyline fill="none" stroke="#000000" points="230.0234,-1133.3031 218.0234,-1145.3031 "/>
<text text-anchor="middle" x="212.0234" y="-1123.1031" font-family="Times,serif" font-size="14.00" fill="#000000">jx</text>
</g>
<!-- qt&#45;&gt;jx -->
<g id="edge58" class="edge">
<title>qt-&gt;jx</title>
<path fill="none" stroke="#000000" d="M219.9295,-971.3133C218.4092,-1001.309 215.3032,-1062.5927 213.4693,-1098.775"/>
<polygon fill="#000000" stroke="#000000" points="209.955,-1098.9713 212.9442,-1109.1357 216.946,-1099.3257 209.955,-1098.9713"/>
</g>
<!-- pl -->
<g id="node20" class="node">
<title>pl</title>
<polygon fill="none" stroke="#000000" points="515.4884,-893.554 488.4884,-875.554 515.4884,-857.554 542.4884,-875.554 515.4884,-893.554"/>
<polyline fill="none" stroke="#000000" points="497.4884,-881.554 497.4884,-869.554 "/>
<polyline fill="none" stroke="#000000" points="506.4884,-863.554 524.4884,-863.554 "/>
<polyline fill="none" stroke="#000000" points="533.4884,-869.554 533.4884,-881.554 "/>
<polyline fill="none" stroke="#000000" points="524.4884,-887.554 506.4884,-887.554 "/>
<text text-anchor="middle" x="515.4884" y="-871.354" font-family="Times,serif" font-size="14.00" fill="#000000">pl</text>
</g>
<!-- qt&#45;&gt;pl -->
<g id="edge60" class="edge">
<title>qt-&gt;pl</title>
<path fill="none" stroke="#000000" d="M240.1554,-948.5851C290.5231,-935.2252 426.0278,-899.2831 486.1113,-883.3462"/>
<polygon fill="#000000" stroke="#000000" points="487.3149,-886.648 496.0833,-880.7011 485.5202,-879.882 487.3149,-886.648"/>
</g>
<!-- rh -->
<g id="node27" class="node">
<title>rh</title>
<polygon fill="none" stroke="#000000" points="39.6523,-959.1439 3.6523,-959.1439 3.6523,-923.1439 39.6523,-923.1439 39.6523,-959.1439"/>
<polyline fill="none" stroke="#000000" points="15.6523,-959.1439 3.6523,-947.1439 "/>
<polyline fill="none" stroke="#000000" points="3.6523,-935.1439 15.6523,-923.1439 "/>
<polyline fill="none" stroke="#000000" points="27.6523,-923.1439 39.6523,-935.1439 "/>
<polyline fill="none" stroke="#000000" points="39.6523,-947.1439 27.6523,-959.1439 "/>
<text text-anchor="middle" x="21.6523" y="-936.9439" font-family="Times,serif" font-size="14.00" fill="#000000">rh</text>
</g>
<!-- qt&#45;&gt;rh -->
<g id="edge56" class="edge">
<title>qt-&gt;rh</title>
<path fill="none" stroke="#000000" d="M195.9993,-952.1468C158.8255,-949.8008 88.8976,-945.3877 49.8473,-942.9233"/>
<polygon fill="#000000" stroke="#000000" points="49.9054,-939.4201 39.7047,-942.2832 49.4644,-946.4062 49.9054,-939.4201"/>
</g>
<!-- qt&#45;&gt;nd -->
<g id="edge57" class="edge">
<title>qt-&gt;nd</title>
<path fill="none" stroke="#000000" d="M228.6793,-940.6193C238.6222,-924.0506 255.9932,-895.1038 268.8031,-873.7577"/>
<polygon fill="#000000" stroke="#000000" points="271.8342,-875.5085 273.9788,-865.133 265.8321,-871.9065 271.8342,-875.5085"/>
</g>
<!-- nt -->
<g id="node47" class="node">
<title>nt</title>
<polygon fill="none" stroke="#000000" points="111.0706,-927.0885 75.0706,-927.0885 75.0706,-891.0885 111.0706,-891.0885 111.0706,-927.0885"/>
<polyline fill="none" stroke="#000000" points="87.0706,-927.0885 75.0706,-915.0885 "/>
<polyline fill="none" stroke="#000000" points="75.0706,-903.0885 87.0706,-891.0885 "/>
<polyline fill="none" stroke="#000000" points="99.0706,-891.0885 111.0706,-903.0885 "/>
<polyline fill="none" stroke="#000000" points="111.0706,-915.0885 99.0706,-927.0885 "/>
<text text-anchor="middle" x="93.0706" y="-904.8885" font-family="Times,serif" font-size="14.00" fill="#000000">nt</text>
</g>
<!-- qt&#45;&gt;nt -->
<g id="edge59" class="edge">
<title>qt-&gt;nt</title>
<path fill="none" stroke="#000000" d="M203.0583,-947.5085C181.7272,-940.0573 145.7052,-927.4744 120.7242,-918.7483"/>
<polygon fill="#000000" stroke="#000000" points="121.6896,-915.3781 111.0947,-915.3846 119.3811,-921.9866 121.6896,-915.3781"/>
</g>
<!-- bn -->
<g id="node9" class="node">
<title>bn</title>
<polygon fill="none" stroke="#000000" points="813.8379,-793.8545 784.8061,-775.8545 813.8379,-757.8545 842.8697,-775.8545 813.8379,-793.8545"/>
<polyline fill="none" stroke="#000000" points="794.4834,-781.8545 794.4834,-769.8545 "/>
<polyline fill="none" stroke="#000000" points="804.1607,-763.8545 823.5152,-763.8545 "/>
<polyline fill="none" stroke="#000000" points="833.1925,-769.8545 833.1925,-781.8545 "/>
<polyline fill="none" stroke="#000000" points="823.5152,-787.8545 804.1607,-787.8545 "/>
<text text-anchor="middle" x="813.8379" y="-771.6545" font-family="Times,serif" font-size="14.00" fill="#000000">bn</text>
</g>
<!-- rx -->
<g id="node10" class="node">
<title>rx</title>
<ellipse fill="none" stroke="#000000" cx="860.6332" cy="-656.1384" rx="27" ry="18"/>
<text text-anchor="middle" x="860.6332" y="-651.9384" font-family="Times,serif" font-size="14.00" fill="#000000">rx</text>
</g>
<!-- bn&#45;&gt;rx -->
<g id="edge7" class="edge">
<title>bn-&gt;rx</title>
<path fill="none" stroke="#000000" d="M819.576,-761.175C827.1693,-741.7488 840.6955,-707.145 850.1398,-682.9834"/>
<polygon fill="#000000" stroke="#000000" points="853.404,-684.2463 853.7849,-673.6583 846.8844,-681.6979 853.404,-684.2463"/>
</g>
<!-- nb -->
<g id="node11" class="node">
<title>nb</title>
<polygon fill="none" stroke="#000000" points="702.3131,-78.0404 666.3131,-78.0404 666.3131,-42.0404 702.3131,-42.0404 702.3131,-78.0404"/>
<polyline fill="none" stroke="#000000" points="678.3131,-78.0404 666.3131,-66.0404 "/>
<polyline fill="none" stroke="#000000" points="666.3131,-54.0404 678.3131,-42.0404 "/>
<polyline fill="none" stroke="#000000" points="690.3131,-42.0404 702.3131,-54.0404 "/>
<polyline fill="none" stroke="#000000" points="702.3131,-66.0404 690.3131,-78.0404 "/>
<text text-anchor="middle" x="684.3131" y="-55.8404" font-family="Times,serif" font-size="14.00" fill="#000000">nb</text>
</g>
<!-- nb&#45;&gt;vt -->
<g id="edge8" class="edge">
<title>nb-&gt;vt</title>
<path fill="none" stroke="#000000" d="M670.5279,-78.2629C650.1904,-105.1465 612.2623,-155.2828 590.9789,-183.4169"/>
<polygon fill="#000000" stroke="#000000" points="587.9388,-181.6342 584.6969,-191.7208 593.5214,-185.8574 587.9388,-181.6342"/>
</g>
<!-- vt&#45;&gt;kr -->
<g id="edge24" class="edge">
<title>vt-&gt;kr</title>
<path fill="none" stroke="#000000" d="M574.9979,-221.6891C578.8824,-266.2407 599.2411,-382.9585 612.2176,-437.0361"/>
<polygon fill="#000000" stroke="#000000" points="608.8825,-438.1265 614.7074,-446.9764 615.6728,-436.4257 608.8825,-438.1265"/>
</g>
<!-- lz -->
<g id="node28" class="node">
<title>lz</title>
<polygon fill="none" stroke="#000000" points="698.7564,-515.9481 671.7564,-497.9481 698.7564,-479.9481 725.7564,-497.9481 698.7564,-515.9481"/>
<polyline fill="none" stroke="#000000" points="680.7564,-503.9481 680.7564,-491.9481 "/>
<polyline fill="none" stroke="#000000" points="689.7564,-485.9481 707.7564,-485.9481 "/>
<polyline fill="none" stroke="#000000" points="716.7564,-491.9481 716.7564,-503.9481 "/>
<polyline fill="none" stroke="#000000" points="707.7564,-509.9481 689.7564,-509.9481 "/>
<text text-anchor="middle" x="698.7564" y="-493.7481" font-family="Times,serif" font-size="14.00" fill="#000000">lz</text>
</g>
<!-- vt&#45;&gt;lz -->
<g id="edge22" class="edge">
<title>vt-&gt;lz</title>
<path fill="none" stroke="#000000" d="M581.4147,-218.1016C601.0624,-264.9591 664.0467,-415.1696 688.7141,-473.9983"/>
<polygon fill="#000000" stroke="#000000" points="685.6305,-475.6957 692.7252,-483.5644 692.086,-472.9889 685.6305,-475.6957"/>
</g>
<!-- dh -->
<g id="node29" class="node">
<title>dh</title>
<polygon fill="none" stroke="#000000" points="466.3571,-269.4385 430.3571,-269.4385 430.3571,-233.4385 466.3571,-233.4385 466.3571,-269.4385"/>
<polyline fill="none" stroke="#000000" points="442.3571,-269.4385 430.3571,-257.4385 "/>
<polyline fill="none" stroke="#000000" points="430.3571,-245.4385 442.3571,-233.4385 "/>
<polyline fill="none" stroke="#000000" points="454.3571,-233.4385 466.3571,-245.4385 "/>
<polyline fill="none" stroke="#000000" points="466.3571,-257.4385 454.3571,-269.4385 "/>
<text text-anchor="middle" x="448.3571" y="-247.2385" font-family="Times,serif" font-size="14.00" fill="#000000">dh</text>
</g>
<!-- vt&#45;&gt;dh -->
<g id="edge23" class="edge">
<title>vt-&gt;dh</title>
<path fill="none" stroke="#000000" d="M558.0605,-210.4277C536.9056,-218.3361 500.9507,-231.7773 475.9951,-241.1065"/>
<polygon fill="#000000" stroke="#000000" points="474.5154,-237.923 466.3741,-244.7032 476.9666,-244.4798 474.5154,-237.923"/>
</g>
<!-- kq -->
<g id="node30" class="node">
<title>kq</title>
<polygon fill="none" stroke="#000000" points="427.7286,-181.9921 391.7286,-181.9921 391.7286,-145.9921 427.7286,-145.9921 427.7286,-181.9921"/>
<polyline fill="none" stroke="#000000" points="403.7286,-181.9921 391.7286,-169.9921 "/>
<polyline fill="none" stroke="#000000" points="391.7286,-157.9921 403.7286,-145.9921 "/>
<polyline fill="none" stroke="#000000" points="415.7286,-145.9921 427.7286,-157.9921 "/>
<polyline fill="none" stroke="#000000" points="427.7286,-169.9921 415.7286,-181.9921 "/>
<text text-anchor="middle" x="409.7286" y="-159.7921" font-family="Times,serif" font-size="14.00" fill="#000000">kq</text>
</g>
<!-- vt&#45;&gt;kq -->
<g id="edge25" class="edge">
<title>vt-&gt;kq</title>
<path fill="none" stroke="#000000" d="M555.4762,-199.1038C526.1097,-192.0292 471.1873,-178.798 437.7917,-170.7527"/>
<polygon fill="#000000" stroke="#000000" points="438.3067,-167.2767 427.7651,-168.3372 436.6672,-174.082 438.3067,-167.2767"/>
</g>
<!-- lm -->
<g id="node31" class="node">
<title>lm</title>
<polygon fill="none" stroke="#000000" points="461.7969,-120.9443 425.7969,-120.9443 425.7969,-84.9443 461.7969,-84.9443 461.7969,-120.9443"/>
<polyline fill="none" stroke="#000000" points="437.7969,-120.9443 425.7969,-108.9443 "/>
<polyline fill="none" stroke="#000000" points="425.7969,-96.9443 437.7969,-84.9443 "/>
<polyline fill="none" stroke="#000000" points="449.7969,-84.9443 461.7969,-96.9443 "/>
<polyline fill="none" stroke="#000000" points="461.7969,-108.9443 449.7969,-120.9443 "/>
<text text-anchor="middle" x="443.7969" y="-98.7443" font-family="Times,serif" font-size="14.00" fill="#000000">lm</text>
</g>
<!-- vt&#45;&gt;lm -->
<g id="edge26" class="edge">
<title>vt-&gt;lm</title>
<path fill="none" stroke="#000000" d="M562.843,-194.2381C541.6097,-177.9547 498.3204,-144.7571 470.2099,-123.1998"/>
<polygon fill="#000000" stroke="#000000" points="472.0797,-120.223 462.0145,-116.915 467.8199,-125.7777 472.0797,-120.223"/>
</g>
<!-- qk -->
<g id="node32" class="node">
<title>qk</title>
<polygon fill="none" stroke="#000000" points="470.7967,-73.3211 434.7967,-73.3211 434.7967,-37.3211 470.7967,-37.3211 470.7967,-73.3211"/>
<polyline fill="none" stroke="#000000" points="446.7967,-73.3211 434.7967,-61.3211 "/>
<polyline fill="none" stroke="#000000" points="434.7967,-49.3211 446.7967,-37.3211 "/>
<polyline fill="none" stroke="#000000" points="458.7967,-37.3211 470.7967,-49.3211 "/>
<polyline fill="none" stroke="#000000" points="470.7967,-61.3211 458.7967,-73.3211 "/>
<text text-anchor="middle" x="452.7967" y="-51.1211" font-family="Times,serif" font-size="14.00" fill="#000000">qk</text>
</g>
<!-- vt&#45;&gt;qk -->
<g id="edge27" class="edge">
<title>vt-&gt;qk</title>
<path fill="none" stroke="#000000" d="M565.8424,-192.2597C546.2644,-168.5438 501.3827,-114.176 474.4318,-81.5289"/>
<polygon fill="#000000" stroke="#000000" points="477.0579,-79.2122 467.9925,-73.7286 471.6596,-83.6686 477.0579,-79.2122"/>
</g>
<!-- hm -->
<g id="node13" class="node">
<title>hm</title>
<polygon fill="none" stroke="#000000" points="894.942,-1544.0791 858.942,-1544.0791 858.942,-1508.0791 894.942,-1508.0791 894.942,-1544.0791"/>
<polyline fill="none" stroke="#000000" points="870.942,-1544.0791 858.942,-1532.0791 "/>
<polyline fill="none" stroke="#000000" points="858.942,-1520.0791 870.942,-1508.0791 "/>
<polyline fill="none" stroke="#000000" points="882.942,-1508.0791 894.942,-1520.0791 "/>
<polyline fill="none" stroke="#000000" points="894.942,-1532.0791 882.942,-1544.0791 "/>
<text text-anchor="middle" x="876.942" y="-1521.8791" font-family="Times,serif" font-size="14.00" fill="#000000">hm</text>
</g>
<!-- jp -->
<g id="node14" class="node">
<title>jp</title>
<polygon fill="none" stroke="#000000" points="963.3245,-1531.8929 927.3245,-1531.8929 927.3245,-1495.8929 963.3245,-1495.8929 963.3245,-1531.8929"/>
<polyline fill="none" stroke="#000000" points="939.3245,-1531.8929 927.3245,-1519.8929 "/>
<polyline fill="none" stroke="#000000" points="927.3245,-1507.8929 939.3245,-1495.8929 "/>
<polyline fill="none" stroke="#000000" points="951.3245,-1495.8929 963.3245,-1507.8929 "/>
<polyline fill="none" stroke="#000000" points="963.3245,-1519.8929 951.3245,-1531.8929 "/>
<text text-anchor="middle" x="945.3245" y="-1509.6929" font-family="Times,serif" font-size="14.00" fill="#000000">jp</text>
</g>
<!-- hm&#45;&gt;jp -->
<g id="edge9" class="edge">
<title>hm-&gt;jp</title>
<path fill="none" stroke="#000000" d="M895.2673,-1522.8134C901.9359,-1521.625 909.6392,-1520.2523 916.9731,-1518.9453"/>
<polygon fill="#000000" stroke="#000000" points="917.7178,-1522.3678 926.9487,-1517.1676 916.4897,-1515.4764 917.7178,-1522.3678"/>
</g>
<!-- jp&#45;&gt;nl -->
<g id="edge108" class="edge">
<title>jp-&gt;nl</title>
<path fill="none" stroke="#000000" d="M941.2222,-1495.8846C933.1435,-1460.4201 915.1512,-1381.4363 905.8374,-1340.5498"/>
<polygon fill="#000000" stroke="#000000" points="909.2484,-1339.7651 903.6147,-1330.7923 902.4232,-1341.3199 909.2484,-1339.7651"/>
</g>
<!-- gj -->
<g id="node44" class="node">
<title>gj</title>
<polygon fill="none" stroke="#000000" points="1031.3147,-1508.0917 995.3147,-1508.0917 995.3147,-1472.0917 1031.3147,-1472.0917 1031.3147,-1508.0917"/>
<polyline fill="none" stroke="#000000" points="1007.3147,-1508.0917 995.3147,-1496.0917 "/>
<polyline fill="none" stroke="#000000" points="995.3147,-1484.0917 1007.3147,-1472.0917 "/>
<polyline fill="none" stroke="#000000" points="1019.3147,-1472.0917 1031.3147,-1484.0917 "/>
<polyline fill="none" stroke="#000000" points="1031.3147,-1496.0917 1019.3147,-1508.0917 "/>
<text text-anchor="middle" x="1013.3147" y="-1485.8917" font-family="Times,serif" font-size="14.00" fill="#000000">gj</text>
</g>
<!-- jp&#45;&gt;gj -->
<g id="edge109" class="edge">
<title>jp-&gt;gj</title>
<path fill="none" stroke="#000000" d="M963.5446,-1507.5146C970.2512,-1505.1669 978.0103,-1502.4507 985.3772,-1499.8717"/>
<polygon fill="#000000" stroke="#000000" points="986.7623,-1503.0952 995.0443,-1496.4876 984.4494,-1496.4883 986.7623,-1503.0952"/>
</g>
<!-- vr -->
<g id="node15" class="node">
<title>vr</title>
<polygon fill="none" stroke="#000000" points="83.1672,-1040.657 47.1672,-1040.657 47.1672,-1004.657 83.1672,-1004.657 83.1672,-1040.657"/>
<polyline fill="none" stroke="#000000" points="59.1672,-1040.657 47.1672,-1028.657 "/>
<polyline fill="none" stroke="#000000" points="47.1672,-1016.657 59.1672,-1004.657 "/>
<polyline fill="none" stroke="#000000" points="71.1672,-1004.657 83.1672,-1016.657 "/>
<polyline fill="none" stroke="#000000" points="83.1672,-1028.657 71.1672,-1040.657 "/>
<text text-anchor="middle" x="65.1672" y="-1018.457" font-family="Times,serif" font-size="14.00" fill="#000000">vr</text>
</g>
<!-- vr&#45;&gt;qt -->
<g id="edge10" class="edge">
<title>vr-&gt;qt</title>
<path fill="none" stroke="#000000" d="M83.3274,-1014.6133C110.8255,-1002.4336 163.1596,-979.2534 194.7307,-965.2697"/>
<polygon fill="#000000" stroke="#000000" points="196.4679,-968.3282 204.1937,-961.0782 193.633,-961.928 196.4679,-968.3282"/>
</g>
<!-- sl -->
<g id="node16" class="node">
<title>sl</title>
<polygon fill="none" stroke="#000000" points="147.8683,-1104.5543 111.8683,-1104.5543 111.8683,-1068.5543 147.8683,-1068.5543 147.8683,-1104.5543"/>
<polyline fill="none" stroke="#000000" points="123.8683,-1104.5543 111.8683,-1092.5543 "/>
<polyline fill="none" stroke="#000000" points="111.8683,-1080.5543 123.8683,-1068.5543 "/>
<polyline fill="none" stroke="#000000" points="135.8683,-1068.5543 147.8683,-1080.5543 "/>
<polyline fill="none" stroke="#000000" points="147.8683,-1092.5543 135.8683,-1104.5543 "/>
<text text-anchor="middle" x="129.8683" y="-1082.3543" font-family="Times,serif" font-size="14.00" fill="#000000">sl</text>
</g>
<!-- vr&#45;&gt;sl -->
<g id="edge11" class="edge">
<title>vr-&gt;sl</title>
<path fill="none" stroke="#000000" d="M83.1901,-1040.456C89.6705,-1046.8559 97.1122,-1054.2051 104.1218,-1061.1277"/>
<polygon fill="#000000" stroke="#000000" points="101.918,-1063.8704 111.4925,-1068.4068 106.8367,-1058.8898 101.918,-1063.8704"/>
</g>
<!-- sl&#45;&gt;qt -->
<g id="edge15" class="edge">
<title>sl-&gt;qt</title>
<path fill="none" stroke="#000000" d="M142.3242,-1068.3619C159.1232,-1043.8263 188.965,-1000.2411 206.6173,-974.4591"/>
<polygon fill="#000000" stroke="#000000" points="209.5499,-976.3712 212.3115,-966.1426 203.774,-972.4166 209.5499,-976.3712"/>
</g>
<!-- sl&#45;&gt;jx -->
<g id="edge14" class="edge">
<title>sl-&gt;jx</title>
<path fill="none" stroke="#000000" d="M148.1012,-1095.5978C158.8439,-1100.9261 172.6431,-1107.7705 184.6692,-1113.7354"/>
<polygon fill="#000000" stroke="#000000" points="183.3277,-1116.9769 193.8415,-1118.2849 186.4382,-1110.7059 183.3277,-1116.9769"/>
</g>
<!-- gq -->
<g id="node17" class="node">
<title>gq</title>
<polygon fill="none" stroke="#000000" points="818.9834,-1512.621 782.9834,-1512.621 782.9834,-1476.621 818.9834,-1476.621 818.9834,-1512.621"/>
<polyline fill="none" stroke="#000000" points="794.9834,-1512.621 782.9834,-1500.621 "/>
<polyline fill="none" stroke="#000000" points="782.9834,-1488.621 794.9834,-1476.621 "/>
<polyline fill="none" stroke="#000000" points="806.9834,-1476.621 818.9834,-1488.621 "/>
<polyline fill="none" stroke="#000000" points="818.9834,-1500.621 806.9834,-1512.621 "/>
<text text-anchor="middle" x="800.9834" y="-1490.421" font-family="Times,serif" font-size="14.00" fill="#000000">gq</text>
</g>
<!-- gq&#45;&gt;hm -->
<g id="edge12" class="edge">
<title>gq-&gt;hm</title>
<path fill="none" stroke="#000000" d="M818.9845,-1502.0761C828.0939,-1505.8488 839.347,-1510.5092 849.5067,-1514.7168"/>
<polygon fill="#000000" stroke="#000000" points="848.2286,-1517.9757 858.8069,-1518.5685 850.9071,-1511.5084 848.2286,-1517.9757"/>
</g>
<!-- gq&#45;&gt;nl -->
<g id="edge13" class="edge">
<title>gq-&gt;nl</title>
<path fill="none" stroke="#000000" d="M811.0224,-1476.4015C829.2682,-1443.288 867.8097,-1373.3406 887.6395,-1337.3523"/>
<polygon fill="#000000" stroke="#000000" points="890.9434,-1338.6086 892.7039,-1328.1611 884.8125,-1335.2304 890.9434,-1338.6086"/>
</g>
<!-- nl&#45;&gt;zb -->
<g id="edge101" class="edge">
<title>nl-&gt;zb</title>
<path fill="none" stroke="#000000" d="M896.9697,-1298.5895C884.3543,-1258.0718 840.8631,-1152.7646 816.4817,-1102.5962"/>
<polygon fill="#000000" stroke="#000000" points="819.4619,-1100.7285 811.875,-1093.3332 813.1942,-1103.8456 819.4619,-1100.7285"/>
</g>
<!-- nl&#45;&gt;hm -->
<g id="edge102" class="edge">
<title>nl-&gt;hm</title>
<path fill="none" stroke="#000000" d="M898.1514,-1331.8441C894.2024,-1368.0084 884.9056,-1453.1491 880.0374,-1497.7313"/>
<polygon fill="#000000" stroke="#000000" points="876.5353,-1497.5608 878.9291,-1507.8817 883.494,-1498.3207 876.5353,-1497.5608"/>
</g>
<!-- fr -->
<g id="node25" class="node">
<title>fr</title>
<polygon fill="none" stroke="#000000" points="993.8073,-1461.1273 957.8073,-1461.1273 957.8073,-1425.1273 993.8073,-1425.1273 993.8073,-1461.1273"/>
<polyline fill="none" stroke="#000000" points="969.8073,-1461.1273 957.8073,-1449.1273 "/>
<polyline fill="none" stroke="#000000" points="957.8073,-1437.1273 969.8073,-1425.1273 "/>
<polyline fill="none" stroke="#000000" points="981.8073,-1425.1273 993.8073,-1437.1273 "/>
<polyline fill="none" stroke="#000000" points="993.8073,-1449.1273 981.8073,-1461.1273 "/>
<text text-anchor="middle" x="975.8073" y="-1438.9273" font-family="Times,serif" font-size="14.00" fill="#000000">fr</text>
</g>
<!-- nl&#45;&gt;fr -->
<g id="edge100" class="edge">
<title>nl-&gt;fr</title>
<path fill="none" stroke="#000000" d="M907.8265,-1328.1585C920.0089,-1348.7613 943.7598,-1388.9288 959.7075,-1415.8994"/>
<polygon fill="#000000" stroke="#000000" points="956.8886,-1418.0088 964.9912,-1424.8351 962.9141,-1414.4459 956.8886,-1418.0088"/>
</g>
<!-- zm -->
<g id="node59" class="node">
<title>zm</title>
<polygon fill="none" stroke="#000000" points="877.6618,-1060.388 845.5724,-1042.388 877.6618,-1024.388 909.7513,-1042.388 877.6618,-1060.388"/>
<polyline fill="none" stroke="#000000" points="856.0383,-1048.2586 856.0383,-1036.5173 "/>
<polyline fill="none" stroke="#000000" points="867.1959,-1030.2586 888.1277,-1030.2586 "/>
<polyline fill="none" stroke="#000000" points="899.2854,-1036.5173 899.2854,-1048.2586 "/>
<polyline fill="none" stroke="#000000" points="888.1277,-1054.5173 867.1959,-1054.5173 "/>
<text text-anchor="middle" x="877.6618" y="-1038.188" font-family="Times,serif" font-size="14.00" fill="#000000">zm</text>
</g>
<!-- nl&#45;&gt;zm -->
<g id="edge103" class="edge">
<title>nl-&gt;zm</title>
<path fill="none" stroke="#000000" d="M898.568,-1297.4583C894.7855,-1251.3098 884.5013,-1125.8347 879.9182,-1069.9172"/>
<polygon fill="#000000" stroke="#000000" points="883.3865,-1069.3859 879.0812,-1059.7053 876.4099,-1069.9578 883.3865,-1069.3859"/>
</g>
<!-- jx&#45;&gt;cf -->
<g id="edge52" class="edge">
<title>jx-&gt;cf</title>
<path fill="none" stroke="#000000" d="M193.962,-1130.3387C183.1633,-1132.1537 169.2098,-1134.4989 156.9857,-1136.5534"/>
<polygon fill="#000000" stroke="#000000" points="156.0928,-1133.1543 146.8113,-1138.2635 157.2531,-1140.0575 156.0928,-1133.1543"/>
</g>
<!-- pl&#45;&gt;bn -->
<g id="edge16" class="edge">
<title>pl-&gt;bn</title>
<path fill="none" stroke="#000000" d="M533.7024,-869.4674C583.8135,-852.7218 724.0436,-805.8611 784.9698,-785.5014"/>
<polygon fill="#000000" stroke="#000000" points="786.3396,-788.734 794.7147,-782.2449 784.121,-782.0949 786.3396,-788.734"/>
</g>
<!-- hf -->
<g id="node21" class="node">
<title>hf</title>
<polygon fill="none" stroke="#000000" points="599.3548,-38.9764 563.3548,-38.9764 563.3548,-2.9764 599.3548,-2.9764 599.3548,-38.9764"/>
<polyline fill="none" stroke="#000000" points="575.3548,-38.9764 563.3548,-26.9764 "/>
<polyline fill="none" stroke="#000000" points="563.3548,-14.9764 575.3548,-2.9764 "/>
<polyline fill="none" stroke="#000000" points="587.3548,-2.9764 599.3548,-14.9764 "/>
<polyline fill="none" stroke="#000000" points="599.3548,-26.9764 587.3548,-38.9764 "/>
<text text-anchor="middle" x="581.3548" y="-16.7764" font-family="Times,serif" font-size="14.00" fill="#000000">hf</text>
</g>
<!-- hf&#45;&gt;vt -->
<g id="edge17" class="edge">
<title>hf-&gt;vt</title>
<path fill="none" stroke="#000000" d="M580.7689,-39.1866C579.7392,-71.1849 577.5989,-137.7014 576.3764,-175.6961"/>
<polygon fill="#000000" stroke="#000000" points="572.8666,-175.946 576.0431,-186.0534 579.863,-176.1712 572.8666,-175.946"/>
</g>
<!-- ch -->
<g id="node22" class="node">
<title>ch</title>
<polygon fill="none" stroke="#000000" points="652.9237,-69.9718 616.9237,-69.9718 616.9237,-33.9718 652.9237,-33.9718 652.9237,-69.9718"/>
<polyline fill="none" stroke="#000000" points="628.9237,-69.9718 616.9237,-57.9718 "/>
<polyline fill="none" stroke="#000000" points="616.9237,-45.9718 628.9237,-33.9718 "/>
<polyline fill="none" stroke="#000000" points="640.9237,-33.9718 652.9237,-45.9718 "/>
<polyline fill="none" stroke="#000000" points="652.9237,-57.9718 640.9237,-69.9718 "/>
<text text-anchor="middle" x="634.9237" y="-47.7718" font-family="Times,serif" font-size="14.00" fill="#000000">ch</text>
</g>
<!-- hf&#45;&gt;ch -->
<g id="edge18" class="edge">
<title>hf-&gt;ch</title>
<path fill="none" stroke="#000000" d="M599.4908,-31.4701C602.2832,-33.0858 605.2162,-34.7828 608.149,-36.4798"/>
<polygon fill="#000000" stroke="#000000" points="606.3979,-39.5102 616.8064,-41.489 609.9037,-33.4513 606.3979,-39.5102"/>
</g>
<!-- ch&#45;&gt;vt -->
<g id="edge46" class="edge">
<title>ch-&gt;vt</title>
<path fill="none" stroke="#000000" d="M627.8699,-69.999C617.1471,-97.4027 596.7345,-149.5705 584.7973,-180.0781"/>
<polygon fill="#000000" stroke="#000000" points="581.4847,-178.9389 581.1002,-189.5267 588.0034,-181.4896 581.4847,-178.9389"/>
</g>
<!-- kd -->
<g id="node46" class="node">
<title>kd</title>
<polygon fill="none" stroke="#000000" points="717.4696,-132.4276 681.4696,-132.4276 681.4696,-96.4276 717.4696,-96.4276 717.4696,-132.4276"/>
<polyline fill="none" stroke="#000000" points="693.4696,-132.4276 681.4696,-120.4276 "/>
<polyline fill="none" stroke="#000000" points="681.4696,-108.4276 693.4696,-96.4276 "/>
<polyline fill="none" stroke="#000000" points="705.4696,-96.4276 717.4696,-108.4276 "/>
<polyline fill="none" stroke="#000000" points="717.4696,-120.4276 705.4696,-132.4276 "/>
<text text-anchor="middle" x="699.4696" y="-110.2276" font-family="Times,serif" font-size="14.00" fill="#000000">kd</text>
</g>
<!-- ch&#45;&gt;kd -->
<g id="edge47" class="edge">
<title>ch-&gt;kd</title>
<path fill="none" stroke="#000000" d="M653.2473,-69.7021C659.7068,-75.9524 667.0894,-83.096 674.0302,-89.812"/>
<polygon fill="#000000" stroke="#000000" points="671.7032,-92.4307 681.3235,-96.8692 676.5709,-87.4001 671.7032,-92.4307"/>
</g>
<!-- kx -->
<g id="node23" class="node">
<title>kx</title>
<polygon fill="none" stroke="#000000" points="1423.7426,-469.3799 1387.7426,-469.3799 1387.7426,-433.3799 1423.7426,-433.3799 1423.7426,-469.3799"/>
<polyline fill="none" stroke="#000000" points="1399.7426,-469.3799 1387.7426,-457.3799 "/>
<polyline fill="none" stroke="#000000" points="1387.7426,-445.3799 1399.7426,-433.3799 "/>
<polyline fill="none" stroke="#000000" points="1411.7426,-433.3799 1423.7426,-445.3799 "/>
<polyline fill="none" stroke="#000000" points="1423.7426,-457.3799 1411.7426,-469.3799 "/>
<text text-anchor="middle" x="1405.7426" y="-447.1799" font-family="Times,serif" font-size="14.00" fill="#000000">kx</text>
</g>
<!-- kx&#45;&gt;dq -->
<g id="edge19" class="edge">
<title>kx-&gt;dq</title>
<path fill="none" stroke="#000000" d="M1396.5484,-469.6757C1380.789,-501.0358 1348.6519,-564.9866 1331.3962,-599.3244"/>
<polygon fill="#000000" stroke="#000000" points="1328.1141,-598.0608 1326.7512,-608.5676 1334.3688,-601.2039 1328.1141,-598.0608"/>
</g>
<!-- dq&#45;&gt;xd -->
<g id="edge30" class="edge">
<title>dq-&gt;xd</title>
<path fill="none" stroke="#000000" d="M1290.9184,-622.2529C1236.557,-626.8313 1119.778,-643.8562 1066.1423,-655.0158"/>
<polygon fill="#000000" stroke="#000000" points="1065.3185,-651.6132 1056.2942,-657.1641 1066.8105,-658.4523 1065.3185,-651.6132"/>
</g>
<!-- mz -->
<g id="node33" class="node">
<title>mz</title>
<polygon fill="none" stroke="#000000" points="1058.7287,-740.9209 1026.6393,-722.9209 1058.7287,-704.9209 1090.8182,-722.9209 1058.7287,-740.9209"/>
<polyline fill="none" stroke="#000000" points="1037.1052,-728.7916 1037.1052,-717.0503 "/>
<polyline fill="none" stroke="#000000" points="1048.2628,-710.7916 1069.1946,-710.7916 "/>
<polyline fill="none" stroke="#000000" points="1080.3523,-717.0503 1080.3523,-728.7916 "/>
<polyline fill="none" stroke="#000000" points="1069.1946,-735.0503 1048.2628,-735.0503 "/>
<text text-anchor="middle" x="1058.7287" y="-718.7209" font-family="Times,serif" font-size="14.00" fill="#000000">mz</text>
</g>
<!-- dq&#45;&gt;mz -->
<g id="edge28" class="edge">
<title>dq-&gt;mz</title>
<path fill="none" stroke="#000000" d="M1301.8831,-629.2543C1257.3043,-646.4267 1141.2409,-691.136 1087.1928,-711.9562"/>
<polygon fill="#000000" stroke="#000000" points="1085.9271,-708.6929 1077.8537,-715.5537 1088.4434,-715.225 1085.9271,-708.6929"/>
</g>
<!-- ml -->
<g id="node34" class="node">
<title>ml</title>
<polygon fill="none" stroke="#000000" points="1494.3372,-740.3483 1458.3372,-740.3483 1458.3372,-704.3483 1494.3372,-704.3483 1494.3372,-740.3483"/>
<polyline fill="none" stroke="#000000" points="1470.3372,-740.3483 1458.3372,-728.3483 "/>
<polyline fill="none" stroke="#000000" points="1458.3372,-716.3483 1470.3372,-704.3483 "/>
<polyline fill="none" stroke="#000000" points="1482.3372,-704.3483 1494.3372,-716.3483 "/>
<polyline fill="none" stroke="#000000" points="1494.3372,-728.3483 1482.3372,-740.3483 "/>
<text text-anchor="middle" x="1476.3372" y="-718.1483" font-family="Times,serif" font-size="14.00" fill="#000000">ml</text>
</g>
<!-- dq&#45;&gt;ml -->
<g id="edge29" class="edge">
<title>dq-&gt;ml</title>
<path fill="none" stroke="#000000" d="M1334.2729,-631.5702C1360.4193,-648.2776 1415.9731,-683.7761 1449.3369,-705.0953"/>
<polygon fill="#000000" stroke="#000000" points="1447.8048,-708.2697 1458.1159,-710.705 1451.5739,-702.3711 1447.8048,-708.2697"/>
</g>
<!-- dq&#45;&gt;fb -->
<g id="edge31" class="edge">
<title>dq-&gt;fb</title>
<path fill="none" stroke="#000000" d="M1300.1146,-616.3047C1277.4016,-609.3504 1239.9128,-597.8721 1214.19,-589.9963"/>
<polygon fill="#000000" stroke="#000000" points="1214.8839,-586.5485 1204.2974,-586.9674 1212.8345,-593.2417 1214.8839,-586.5485"/>
</g>
<!-- xs -->
<g id="node36" class="node">
<title>xs</title>
<polygon fill="none" stroke="#000000" points="1447.3085,-755.9783 1411.3085,-755.9783 1411.3085,-719.9783 1447.3085,-719.9783 1447.3085,-755.9783"/>
<polyline fill="none" stroke="#000000" points="1423.3085,-755.9783 1411.3085,-743.9783 "/>
<polyline fill="none" stroke="#000000" points="1411.3085,-731.9783 1423.3085,-719.9783 "/>
<polyline fill="none" stroke="#000000" points="1435.3085,-719.9783 1447.3085,-731.9783 "/>
<polyline fill="none" stroke="#000000" points="1447.3085,-743.9783 1435.3085,-755.9783 "/>
<text text-anchor="middle" x="1429.3085" y="-733.7783" font-family="Times,serif" font-size="14.00" fill="#000000">xs</text>
</g>
<!-- dq&#45;&gt;xs -->
<g id="edge32" class="edge">
<title>dq-&gt;xs</title>
<path fill="none" stroke="#000000" d="M1330.7271,-633.8516C1347.9058,-651.9966 1381.7093,-687.7016 1404.8997,-712.1965"/>
<polygon fill="#000000" stroke="#000000" points="1402.6049,-714.8635 1412.0216,-719.7191 1407.6882,-710.051 1402.6049,-714.8635"/>
</g>
<!-- rc -->
<g id="node37" class="node">
<title>rc</title>
<polygon fill="none" stroke="#000000" points="1473.6794,-581.1698 1437.6794,-581.1698 1437.6794,-545.1698 1473.6794,-545.1698 1473.6794,-581.1698"/>
<polyline fill="none" stroke="#000000" points="1449.6794,-581.1698 1437.6794,-569.1698 "/>
<polyline fill="none" stroke="#000000" points="1437.6794,-557.1698 1449.6794,-545.1698 "/>
<polyline fill="none" stroke="#000000" points="1461.6794,-545.1698 1473.6794,-557.1698 "/>
<polyline fill="none" stroke="#000000" points="1473.6794,-569.1698 1461.6794,-581.1698 "/>
<text text-anchor="middle" x="1455.6794" y="-558.9698" font-family="Times,serif" font-size="14.00" fill="#000000">rc</text>
</g>
<!-- dq&#45;&gt;rc -->
<g id="edge33" class="edge">
<title>dq-&gt;rc</title>
<path fill="none" stroke="#000000" d="M1337.0351,-614.847C1359.9267,-604.8762 1400.6746,-587.1279 1427.9377,-575.253"/>
<polygon fill="#000000" stroke="#000000" points="1429.5435,-578.3713 1437.3139,-571.1691 1426.7482,-571.9536 1429.5435,-578.3713"/>
</g>
<!-- rt -->
<g id="node38" class="node">
<title>rt</title>
<polygon fill="none" stroke="#000000" points="1292.3448,-514.7115 1256.3448,-514.7115 1256.3448,-478.7115 1292.3448,-478.7115 1292.3448,-514.7115"/>
<polyline fill="none" stroke="#000000" points="1268.3448,-514.7115 1256.3448,-502.7115 "/>
<polyline fill="none" stroke="#000000" points="1256.3448,-490.7115 1268.3448,-478.7115 "/>
<polyline fill="none" stroke="#000000" points="1280.3448,-478.7115 1292.3448,-490.7115 "/>
<polyline fill="none" stroke="#000000" points="1292.3448,-502.7115 1280.3448,-514.7115 "/>
<text text-anchor="middle" x="1274.3448" y="-492.5115" font-family="Times,serif" font-size="14.00" fill="#000000">rt</text>
</g>
<!-- dq&#45;&gt;rt -->
<g id="edge34" class="edge">
<title>dq-&gt;rt</title>
<path fill="none" stroke="#000000" d="M1314.4333,-607.4364C1307.0376,-587.0093 1293.6164,-549.94 1284.3536,-524.3561"/>
<polygon fill="#000000" stroke="#000000" points="1287.6039,-523.052 1280.9086,-514.8408 1281.022,-525.435 1287.6039,-523.052"/>
</g>
<!-- qf -->
<g id="node26" class="node">
<title>qf</title>
<polygon fill="none" stroke="#000000" points="894.389,-1481.8687 858.389,-1481.8687 858.389,-1445.8687 894.389,-1445.8687 894.389,-1481.8687"/>
<polyline fill="none" stroke="#000000" points="870.389,-1481.8687 858.389,-1469.8687 "/>
<polyline fill="none" stroke="#000000" points="858.389,-1457.8687 870.389,-1445.8687 "/>
<polyline fill="none" stroke="#000000" points="882.389,-1445.8687 894.389,-1457.8687 "/>
<polyline fill="none" stroke="#000000" points="894.389,-1469.8687 882.389,-1481.8687 "/>
<text text-anchor="middle" x="876.389" y="-1459.6687" font-family="Times,serif" font-size="14.00" fill="#000000">qf</text>
</g>
<!-- fr&#45;&gt;qf -->
<g id="edge20" class="edge">
<title>fr-&gt;qf</title>
<path fill="none" stroke="#000000" d="M957.5725,-1446.9316C942.7173,-1450.0308 921.4916,-1454.459 904.4693,-1458.0104"/>
<polygon fill="#000000" stroke="#000000" points="903.5827,-1454.6199 894.5083,-1460.0885 905.0123,-1461.4724 903.5827,-1454.6199"/>
</g>
<!-- qf&#45;&gt;nl -->
<g id="edge72" class="edge">
<title>qf-&gt;nl</title>
<path fill="none" stroke="#000000" d="M879.2841,-1445.6048C883.4076,-1419.5909 890.9988,-1371.7014 895.7576,-1341.6803"/>
<polygon fill="#000000" stroke="#000000" points="899.2621,-1341.9266 897.371,-1331.5019 892.3485,-1340.8306 899.2621,-1341.9266"/>
</g>
<!-- rd -->
<g id="node53" class="node">
<title>rd</title>
<polygon fill="none" stroke="#000000" points="789.9298,-1445.6093 753.9298,-1445.6093 753.9298,-1409.6093 789.9298,-1409.6093 789.9298,-1445.6093"/>
<polyline fill="none" stroke="#000000" points="765.9298,-1445.6093 753.9298,-1433.6093 "/>
<polyline fill="none" stroke="#000000" points="753.9298,-1421.6093 765.9298,-1409.6093 "/>
<polyline fill="none" stroke="#000000" points="777.9298,-1409.6093 789.9298,-1421.6093 "/>
<polyline fill="none" stroke="#000000" points="789.9298,-1433.6093 777.9298,-1445.6093 "/>
<text text-anchor="middle" x="771.9298" y="-1423.4093" font-family="Times,serif" font-size="14.00" fill="#000000">rd</text>
</g>
<!-- qf&#45;&gt;rd -->
<g id="edge71" class="edge">
<title>qf-&gt;rd</title>
<path fill="none" stroke="#000000" d="M858.1936,-1457.5528C842.1152,-1451.9717 818.4152,-1443.7451 799.9232,-1437.3262"/>
<polygon fill="#000000" stroke="#000000" points="800.862,-1433.9473 790.2671,-1433.9745 798.5665,-1440.5602 800.862,-1433.9473"/>
</g>
<!-- rh&#45;&gt;vr -->
<g id="edge21" class="edge">
<title>rh-&gt;vr</title>
<path fill="none" stroke="#000000" d="M31.3097,-959.2343C36.9997,-969.893 44.3087,-983.5844 50.6786,-995.5165"/>
<polygon fill="#000000" stroke="#000000" points="47.7398,-997.4438 55.5368,-1004.6172 53.915,-994.1472 47.7398,-997.4438"/>
</g>
<!-- lz&#45;&gt;bn -->
<g id="edge80" class="edge">
<title>lz-&gt;bn</title>
<path fill="none" stroke="#000000" d="M704.6215,-512.1116C723.163,-556.8868 780.6569,-695.7267 803.9186,-751.9007"/>
<polygon fill="#000000" stroke="#000000" points="800.7869,-753.4863 807.8466,-761.3863 807.2543,-750.808 800.7869,-753.4863"/>
</g>
<!-- dh&#45;&gt;kq -->
<g id="edge105" class="edge">
<title>dh-&gt;kq</title>
<path fill="none" stroke="#000000" d="M440.3533,-233.3196C435.0185,-221.2428 427.9063,-205.1423 421.8786,-191.4971"/>
<polygon fill="#000000" stroke="#000000" points="424.9645,-189.8208 417.7222,-182.0878 418.5614,-192.6494 424.9645,-189.8208"/>
</g>
<!-- kq&#45;&gt;lm -->
<g id="edge40" class="edge">
<title>kq-&gt;lm</title>
<path fill="none" stroke="#000000" d="M419.9502,-145.6757C422.6452,-140.8466 425.6125,-135.5294 428.5116,-130.3345"/>
<polygon fill="#000000" stroke="#000000" points="431.7657,-131.6856 433.5825,-121.2477 425.6531,-128.2744 431.7657,-131.6856"/>
</g>
<!-- hn -->
<g id="node39" class="node">
<title>hn</title>
<polygon fill="none" stroke="#000000" points="520.6064,-36.2146 484.6064,-36.2146 484.6064,-.2146 520.6064,-.2146 520.6064,-36.2146"/>
<polyline fill="none" stroke="#000000" points="496.6064,-36.2146 484.6064,-24.2146 "/>
<polyline fill="none" stroke="#000000" points="484.6064,-12.2146 496.6064,-.2146 "/>
<polyline fill="none" stroke="#000000" points="508.6064,-.2146 520.6064,-12.2146 "/>
<polyline fill="none" stroke="#000000" points="520.6064,-24.2146 508.6064,-36.2146 "/>
<text text-anchor="middle" x="502.6064" y="-14.0146" font-family="Times,serif" font-size="14.00" fill="#000000">hn</text>
</g>
<!-- lm&#45;&gt;hn -->
<g id="edge86" class="edge">
<title>lm-&gt;hn</title>
<path fill="none" stroke="#000000" d="M456.5577,-84.5592C464.6274,-72.9329 475.1907,-57.7138 484.1643,-44.7851"/>
<polygon fill="#000000" stroke="#000000" points="487.2459,-46.4836 490.0726,-36.2727 481.4953,-42.4922 487.2459,-46.4836"/>
</g>
<!-- cb -->
<g id="node48" class="node">
<title>cb</title>
<polygon fill="none" stroke="#000000" points="549.227,-86.8911 513.227,-86.8911 513.227,-50.8911 549.227,-50.8911 549.227,-86.8911"/>
<polyline fill="none" stroke="#000000" points="525.227,-86.8911 513.227,-74.8911 "/>
<polyline fill="none" stroke="#000000" points="513.227,-62.8911 525.227,-50.8911 "/>
<polyline fill="none" stroke="#000000" points="537.227,-50.8911 549.227,-62.8911 "/>
<polyline fill="none" stroke="#000000" points="549.227,-74.8911 537.227,-86.8911 "/>
<text text-anchor="middle" x="531.227" y="-64.6911" font-family="Times,serif" font-size="14.00" fill="#000000">cb</text>
</g>
<!-- qk&#45;&gt;cb -->
<g id="edge51" class="edge">
<title>qk-&gt;cb</title>
<path fill="none" stroke="#000000" d="M470.9873,-58.4684C480.4903,-60.1126 492.3319,-62.1615 502.995,-64.0064"/>
<polygon fill="#000000" stroke="#000000" points="502.6847,-67.5046 513.1351,-65.7608 503.8782,-60.6071 502.6847,-67.5046"/>
</g>
<!-- mz&#45;&gt;bn -->
<g id="edge70" class="edge">
<title>mz-&gt;bn</title>
<path fill="none" stroke="#000000" d="M1035.2476,-727.9964C990.9885,-737.5631 895.2046,-758.267 845.382,-769.0362"/>
<polygon fill="#000000" stroke="#000000" points="844.5179,-765.6421 835.4831,-771.1759 845.9968,-772.4841 844.5179,-765.6421"/>
</g>
<!-- ts -->
<g id="node58" class="node">
<title>ts</title>
<polygon fill="none" stroke="#000000" points="1478.2678,-669.7868 1442.2678,-669.7868 1442.2678,-633.7868 1478.2678,-633.7868 1478.2678,-669.7868"/>
<polyline fill="none" stroke="#000000" points="1454.2678,-669.7868 1442.2678,-657.7868 "/>
<polyline fill="none" stroke="#000000" points="1442.2678,-645.7868 1454.2678,-633.7868 "/>
<polyline fill="none" stroke="#000000" points="1466.2678,-633.7868 1478.2678,-645.7868 "/>
<polyline fill="none" stroke="#000000" points="1478.2678,-657.7868 1466.2678,-669.7868 "/>
<text text-anchor="middle" x="1460.2678" y="-647.5868" font-family="Times,serif" font-size="14.00" fill="#000000">ts</text>
</g>
<!-- ml&#45;&gt;ts -->
<g id="edge89" class="edge">
<title>ml-&gt;ts</title>
<path fill="none" stroke="#000000" d="M1472.199,-704.1769C1470.5251,-696.8269 1468.5535,-688.1696 1466.7004,-680.0327"/>
<polygon fill="#000000" stroke="#000000" points="1470.0811,-679.1149 1464.4479,-670.1418 1463.2559,-680.6693 1470.0811,-679.1149"/>
</g>
<!-- fb&#45;&gt;rt -->
<g id="edge79" class="edge">
<title>fb-&gt;rt</title>
<path fill="none" stroke="#000000" d="M1204.4771,-563.8775C1217.2388,-551.6093 1234.4589,-535.0551 1248.6099,-521.4513"/>
<polygon fill="#000000" stroke="#000000" points="1251.3246,-523.6966 1256.108,-514.2431 1246.4733,-518.6502 1251.3246,-523.6966"/>
</g>
<!-- xs&#45;&gt;ml -->
<g id="edge107" class="edge">
<title>xs-&gt;ml</title>
<path fill="none" stroke="#000000" d="M1447.3565,-731.98C1447.6868,-731.8703 1448.0186,-731.76 1448.3516,-731.6493"/>
<polygon fill="#000000" stroke="#000000" points="1449.7185,-734.8834 1458.1042,-728.408 1447.5107,-728.2406 1449.7185,-734.8834"/>
</g>
<!-- lv -->
<g id="node45" class="node">
<title>lv</title>
<polygon fill="none" stroke="#000000" points="1542.247,-671.383 1506.247,-671.383 1506.247,-635.383 1542.247,-635.383 1542.247,-671.383"/>
<polyline fill="none" stroke="#000000" points="1518.247,-671.383 1506.247,-659.383 "/>
<polyline fill="none" stroke="#000000" points="1506.247,-647.383 1518.247,-635.383 "/>
<polyline fill="none" stroke="#000000" points="1530.247,-635.383 1542.247,-647.383 "/>
<polyline fill="none" stroke="#000000" points="1542.247,-659.383 1530.247,-671.383 "/>
<text text-anchor="middle" x="1524.247" y="-649.183" font-family="Times,serif" font-size="14.00" fill="#000000">lv</text>
</g>
<!-- rc&#45;&gt;lv -->
<g id="edge69" class="edge">
<title>rc-&gt;lv</title>
<path fill="none" stroke="#000000" d="M1469.555,-581.4258C1479.4995,-594.5095 1493.0458,-612.3321 1504.1686,-626.9662"/>
<polygon fill="#000000" stroke="#000000" points="1501.5543,-629.3107 1510.3919,-635.1542 1507.1273,-625.0748 1501.5543,-629.3107"/>
</g>
<!-- mt -->
<g id="node56" class="node">
<title>mt</title>
<polygon fill="none" stroke="#000000" points="1405.6347,-515.666 1369.6347,-515.666 1369.6347,-479.666 1405.6347,-479.666 1405.6347,-515.666"/>
<polyline fill="none" stroke="#000000" points="1381.6347,-515.666 1369.6347,-503.666 "/>
<polyline fill="none" stroke="#000000" points="1369.6347,-491.666 1381.6347,-479.666 "/>
<polyline fill="none" stroke="#000000" points="1393.6347,-479.666 1405.6347,-491.666 "/>
<polyline fill="none" stroke="#000000" points="1405.6347,-503.666 1393.6347,-515.666 "/>
<text text-anchor="middle" x="1387.6347" y="-493.466" font-family="Times,serif" font-size="14.00" fill="#000000">mt</text>
</g>
<!-- rt&#45;&gt;mt -->
<g id="edge83" class="edge">
<title>rt-&gt;mt</title>
<path fill="none" stroke="#000000" d="M1292.5468,-496.8649C1310.5498,-497.0165 1338.362,-497.2509 1359.2652,-497.427"/>
<polygon fill="#000000" stroke="#000000" points="1359.4487,-500.9285 1369.4779,-497.513 1359.5078,-493.9288 1359.4487,-500.9285"/>
</g>
<!-- hn&#45;&gt;vt -->
<g id="edge36" class="edge">
<title>hn-&gt;vt</title>
<path fill="none" stroke="#000000" d="M509.7254,-36.359C522.9488,-70.0619 551.2971,-142.3143 566.0737,-179.976"/>
<polygon fill="#000000" stroke="#000000" points="562.947,-181.5897 569.8577,-189.6204 569.4634,-179.0329 562.947,-181.5897"/>
</g>
<!-- hn&#45;&gt;qk -->
<g id="edge35" class="edge">
<title>hn-&gt;qk</title>
<path fill="none" stroke="#000000" d="M484.342,-31.821C482.7177,-33.031 481.0528,-34.2713 479.3777,-35.5192"/>
<polygon fill="#000000" stroke="#000000" points="476.9874,-32.9354 471.059,-41.7164 481.1693,-38.549 476.9874,-32.9354"/>
</g>
<!-- bv -->
<g id="node40" class="node">
<title>bv</title>
<polygon fill="none" stroke="#000000" points="1081.2999,-1452.242 1045.2999,-1452.242 1045.2999,-1416.242 1081.2999,-1416.242 1081.2999,-1452.242"/>
<polyline fill="none" stroke="#000000" points="1057.2999,-1452.242 1045.2999,-1440.242 "/>
<polyline fill="none" stroke="#000000" points="1045.2999,-1428.242 1057.2999,-1416.242 "/>
<polyline fill="none" stroke="#000000" points="1069.2999,-1416.242 1081.2999,-1428.242 "/>
<polyline fill="none" stroke="#000000" points="1081.2999,-1440.242 1069.2999,-1452.242 "/>
<text text-anchor="middle" x="1063.2999" y="-1430.042" font-family="Times,serif" font-size="14.00" fill="#000000">bv</text>
</g>
<!-- bv&#45;&gt;nl -->
<g id="edge37" class="edge">
<title>bv-&gt;nl</title>
<path fill="none" stroke="#000000" d="M1045.2,-1421.0166C1014.8379,-1398.8316 953.7938,-1354.2278 921.3717,-1330.5376"/>
<polygon fill="#000000" stroke="#000000" points="923.1745,-1327.5201 913.0353,-1324.4463 919.0446,-1333.172 923.1745,-1327.5201"/>
</g>
<!-- jv -->
<g id="node41" class="node">
<title>jv</title>
<polygon fill="none" stroke="#000000" points="60.7105,-872.3928 24.7105,-872.3928 24.7105,-836.3928 60.7105,-836.3928 60.7105,-872.3928"/>
<polyline fill="none" stroke="#000000" points="36.7105,-872.3928 24.7105,-860.3928 "/>
<polyline fill="none" stroke="#000000" points="24.7105,-848.3928 36.7105,-836.3928 "/>
<polyline fill="none" stroke="#000000" points="48.7105,-836.3928 60.7105,-848.3928 "/>
<polyline fill="none" stroke="#000000" points="60.7105,-860.3928 48.7105,-872.3928 "/>
<text text-anchor="middle" x="42.7105" y="-850.1928" font-family="Times,serif" font-size="14.00" fill="#000000">jv</text>
</g>
<!-- jv&#45;&gt;qt -->
<g id="edge39" class="edge">
<title>jv-&gt;qt</title>
<path fill="none" stroke="#000000" d="M60.7689,-864.4627C93.0804,-882.4807 160.776,-920.23 196.9043,-940.3763"/>
<polygon fill="#000000" stroke="#000000" points="195.3473,-943.5154 205.7858,-945.3289 198.7565,-937.4017 195.3473,-943.5154"/>
</g>
<!-- jv&#45;&gt;rh -->
<g id="edge38" class="edge">
<title>jv-&gt;rh</title>
<path fill="none" stroke="#000000" d="M38.2446,-872.7905C35.4057,-884.4855 31.6748,-899.8555 28.4699,-913.0582"/>
<polygon fill="#000000" stroke="#000000" points="24.9973,-912.5268 26.0396,-923.0702 31.7998,-914.1781 24.9973,-912.5268"/>
</g>
<!-- hp -->
<g id="node43" class="node">
<title>hp</title>
<polygon fill="none" stroke="#000000" points="166.0374,-846.2533 130.0374,-846.2533 130.0374,-810.2533 166.0374,-810.2533 166.0374,-846.2533"/>
<polyline fill="none" stroke="#000000" points="142.0374,-846.2533 130.0374,-834.2533 "/>
<polyline fill="none" stroke="#000000" points="130.0374,-822.2533 142.0374,-810.2533 "/>
<polyline fill="none" stroke="#000000" points="154.0374,-810.2533 166.0374,-822.2533 "/>
<polyline fill="none" stroke="#000000" points="166.0374,-834.2533 154.0374,-846.2533 "/>
<text text-anchor="middle" x="148.0374" y="-824.0533" font-family="Times,serif" font-size="14.00" fill="#000000">hp</text>
</g>
<!-- nd&#45;&gt;hp -->
<g id="edge41" class="edge">
<title>nd-&gt;hp</title>
<path fill="none" stroke="#000000" d="M266.7292,-844.4476C243.6192,-841.2945 203.467,-835.8161 176.334,-832.1141"/>
<polygon fill="#000000" stroke="#000000" points="176.6688,-828.6274 166.2874,-830.7433 175.7224,-835.5632 176.6688,-828.6274"/>
</g>
<!-- hp&#45;&gt;qt -->
<g id="edge68" class="edge">
<title>hp-&gt;qt</title>
<path fill="none" stroke="#000000" d="M158.6208,-846.4962C171.708,-869.0551 193.9697,-907.4281 208.0092,-931.6285"/>
<polygon fill="#000000" stroke="#000000" points="205.0793,-933.553 213.1249,-940.4464 211.1342,-930.0403 205.0793,-933.553"/>
</g>
<!-- hp&#45;&gt;nt -->
<g id="edge67" class="edge">
<title>hp-&gt;nt</title>
<path fill="none" stroke="#000000" d="M135.5646,-846.596C128.3961,-857.1381 119.2624,-870.5703 111.3013,-882.278"/>
<polygon fill="#000000" stroke="#000000" points="108.2228,-880.5809 105.494,-890.8184 114.0113,-884.5171 108.2228,-880.5809"/>
</g>
<!-- gj&#45;&gt;nl -->
<g id="edge43" class="edge">
<title>gj-&gt;nl</title>
<path fill="none" stroke="#000000" d="M1001.6147,-1472.0052C980.54,-1439.4265 936.3039,-1371.0433 913.7925,-1336.2437"/>
<polygon fill="#000000" stroke="#000000" points="916.6803,-1334.2639 908.3101,-1327.7685 910.8029,-1338.0659 916.6803,-1334.2639"/>
</g>
<!-- gj&#45;&gt;bv -->
<g id="edge42" class="edge">
<title>gj-&gt;bv</title>
<path fill="none" stroke="#000000" d="M1029.6817,-1471.8044C1033.0824,-1468.0048 1036.7259,-1463.9338 1040.3139,-1459.9249"/>
<polygon fill="#000000" stroke="#000000" points="1043.0058,-1462.1653 1047.0668,-1452.3796 1037.7898,-1457.4969 1043.0058,-1462.1653"/>
</g>
<!-- lv&#45;&gt;dq -->
<g id="edge45" class="edge">
<title>lv-&gt;dq</title>
<path fill="none" stroke="#000000" d="M1506.1063,-650.6282C1471.804,-645.4192 1396.9681,-634.055 1353.3089,-627.4251"/>
<polygon fill="#000000" stroke="#000000" points="1353.5977,-623.9289 1343.1855,-625.8878 1352.5467,-630.8495 1353.5977,-623.9289"/>
</g>
<!-- lv&#45;&gt;xs -->
<g id="edge44" class="edge">
<title>lv-&gt;xs</title>
<path fill="none" stroke="#000000" d="M1505.9419,-669.6938C1491.4945,-682.5672 1471.1627,-700.684 1455.0716,-715.022"/>
<polygon fill="#000000" stroke="#000000" points="1452.695,-712.4517 1447.5574,-721.7176 1457.3519,-717.678 1452.695,-712.4517"/>
</g>
<!-- kd&#45;&gt;nb -->
<g id="edge64" class="edge">
<title>kd-&gt;nb</title>
<path fill="none" stroke="#000000" d="M694.4227,-96.3175C693.6891,-93.6851 692.9198,-90.9244 692.1469,-88.151"/>
<polygon fill="#000000" stroke="#000000" points="695.4457,-86.9503 689.3897,-78.2569 688.7027,-88.8295 695.4457,-86.9503"/>
</g>
<!-- kd&#45;&gt;vt -->
<g id="edge63" class="edge">
<title>kd-&gt;vt</title>
<path fill="none" stroke="#000000" d="M681.4387,-127.4406C659.0435,-143.6033 620.8793,-171.1466 596.9796,-188.3952"/>
<polygon fill="#000000" stroke="#000000" points="594.6414,-185.7663 588.5809,-194.4566 598.738,-191.4425 594.6414,-185.7663"/>
</g>
<!-- nt&#45;&gt;jv -->
<g id="edge50" class="edge">
<title>nt-&gt;jv</title>
<path fill="none" stroke="#000000" d="M76.3014,-890.8756C73.1915,-887.498 69.8883,-883.9104 66.6139,-880.3541"/>
<polygon fill="#000000" stroke="#000000" points="68.9265,-877.6986 59.5781,-872.7126 63.7768,-882.44 68.9265,-877.6986"/>
</g>
<!-- cb&#45;&gt;vt -->
<g id="edge78" class="edge">
<title>cb-&gt;vt</title>
<path fill="none" stroke="#000000" d="M537.1936,-87.1017C544.981,-110.8696 558.6413,-152.5626 567.3617,-179.178"/>
<polygon fill="#000000" stroke="#000000" points="564.1083,-180.4897 570.548,-188.9029 570.7604,-178.3102 564.1083,-180.4897"/>
</g>
<!-- cb&#45;&gt;hf -->
<g id="edge77" class="edge">
<title>cb-&gt;hf</title>
<path fill="none" stroke="#000000" d="M549.3243,-51.5928C551.4276,-49.5824 553.602,-47.504 555.7815,-45.4207"/>
<polygon fill="#000000" stroke="#000000" points="558.3053,-47.8501 563.1157,-38.4103 553.4685,-42.7899 558.3053,-47.8501"/>
</g>
<!-- ng&#45;&gt;qt -->
<g id="edge106" class="edge">
<title>ng-&gt;qt</title>
<path fill="none" stroke="#000000" d="M36.492,-1001.3357C71.6893,-992.2423 148.9699,-972.2765 191.4352,-961.3054"/>
<polygon fill="#000000" stroke="#000000" points="192.3796,-964.6764 201.1862,-958.7862 190.6286,-957.899 192.3796,-964.6764"/>
</g>
<!-- bh -->
<g id="node50" class="node">
<title>bh</title>
<polygon fill="none" stroke="#000000" points="1079.8622,-1380.671 1043.8622,-1380.671 1043.8622,-1344.671 1079.8622,-1344.671 1079.8622,-1380.671"/>
<polyline fill="none" stroke="#000000" points="1055.8622,-1380.671 1043.8622,-1368.671 "/>
<polyline fill="none" stroke="#000000" points="1043.8622,-1356.671 1055.8622,-1344.671 "/>
<polyline fill="none" stroke="#000000" points="1067.8622,-1344.671 1079.8622,-1356.671 "/>
<polyline fill="none" stroke="#000000" points="1079.8622,-1368.671 1067.8622,-1380.671 "/>
<text text-anchor="middle" x="1061.8622" y="-1358.471" font-family="Times,serif" font-size="14.00" fill="#000000">bh</text>
</g>
<!-- bh&#45;&gt;nl -->
<g id="edge61" class="edge">
<title>bh-&gt;nl</title>
<path fill="none" stroke="#000000" d="M1043.6091,-1357.2863C1015.7071,-1349.0552 962.1951,-1333.269 928.9561,-1323.4634"/>
<polygon fill="#000000" stroke="#000000" points="929.5164,-1319.9797 918.9347,-1320.5071 927.5357,-1326.6936 929.5164,-1319.9797"/>
</g>
<!-- bh&#45;&gt;fr -->
<g id="edge62" class="edge">
<title>bh-&gt;fr</title>
<path fill="none" stroke="#000000" d="M1043.6122,-1379.7337C1031.4043,-1391.1474 1015.1598,-1406.3351 1001.6314,-1418.9833"/>
<polygon fill="#000000" stroke="#000000" points="998.9454,-1416.7031 994.031,-1426.0892 1003.7261,-1421.8164 998.9454,-1416.7031"/>
</g>
<!-- gx -->
<g id="node51" class="node">
<title>gx</title>
<polygon fill="none" stroke="#000000" points="1525.4686,-595.0058 1489.4686,-595.0058 1489.4686,-559.0058 1525.4686,-559.0058 1525.4686,-595.0058"/>
<polyline fill="none" stroke="#000000" points="1501.4686,-595.0058 1489.4686,-583.0058 "/>
<polyline fill="none" stroke="#000000" points="1489.4686,-571.0058 1501.4686,-559.0058 "/>
<polyline fill="none" stroke="#000000" points="1513.4686,-559.0058 1525.4686,-571.0058 "/>
<polyline fill="none" stroke="#000000" points="1525.4686,-583.0058 1513.4686,-595.0058 "/>
<text text-anchor="middle" x="1507.4686" y="-572.8058" font-family="Times,serif" font-size="14.00" fill="#000000">gx</text>
</g>
<!-- gx&#45;&gt;dq -->
<g id="edge66" class="edge">
<title>gx-&gt;dq</title>
<path fill="none" stroke="#000000" d="M1489.1354,-581.4352C1456.9677,-589.2073 1390.0443,-605.3766 1350.6551,-614.8933"/>
<polygon fill="#000000" stroke="#000000" points="1349.6978,-611.5238 1340.7995,-617.2745 1351.3418,-618.3281 1349.6978,-611.5238"/>
</g>
<!-- mh -->
<g id="node52" class="node">
<title>mh</title>
<polygon fill="none" stroke="#000000" points="1481.452,-521.3762 1445.452,-521.3762 1445.452,-485.3762 1481.452,-485.3762 1481.452,-521.3762"/>
<polyline fill="none" stroke="#000000" points="1457.452,-521.3762 1445.452,-509.3762 "/>
<polyline fill="none" stroke="#000000" points="1445.452,-497.3762 1457.452,-485.3762 "/>
<polyline fill="none" stroke="#000000" points="1469.452,-485.3762 1481.452,-497.3762 "/>
<polyline fill="none" stroke="#000000" points="1481.452,-509.3762 1469.452,-521.3762 "/>
<text text-anchor="middle" x="1463.452" y="-499.1762" font-family="Times,serif" font-size="14.00" fill="#000000">mh</text>
</g>
<!-- gx&#45;&gt;mh -->
<g id="edge65" class="edge">
<title>gx-&gt;mh</title>
<path fill="none" stroke="#000000" d="M1496.5881,-558.8052C1491.4563,-550.2209 1485.2291,-539.8042 1479.5644,-530.3286"/>
<polygon fill="#000000" stroke="#000000" points="1482.4952,-528.4099 1474.3599,-521.6226 1476.4869,-532.0017 1482.4952,-528.4099"/>
</g>
<!-- mh&#45;&gt;kx -->
<g id="edge82" class="edge">
<title>mh-&gt;kx</title>
<path fill="none" stroke="#000000" d="M1445.1924,-486.9243C1440.8769,-483.036 1436.1942,-478.8169 1431.6129,-474.6891"/>
<polygon fill="#000000" stroke="#000000" points="1433.8536,-471.9969 1424.0815,-467.9033 1429.1679,-477.1973 1433.8536,-471.9969"/>
</g>
<!-- mh&#45;&gt;dq -->
<g id="edge81" class="edge">
<title>mh-&gt;dq</title>
<path fill="none" stroke="#000000" d="M1445.2621,-518.4432C1418.4471,-540.6545 1368.4569,-582.0623 1340.361,-605.3346"/>
<polygon fill="#000000" stroke="#000000" points="1337.8629,-602.859 1332.3943,-611.9335 1342.3282,-608.2498 1337.8629,-602.859"/>
</g>
<!-- rd&#45;&gt;gq -->
<g id="edge95" class="edge">
<title>rd-&gt;gq</title>
<path fill="none" stroke="#000000" d="M779.8688,-1445.9205C782.6872,-1452.4211 785.9253,-1459.8899 789.0056,-1466.9945"/>
<polygon fill="#000000" stroke="#000000" points="785.8649,-1468.5493 793.0539,-1476.3319 792.2872,-1465.7648 785.8649,-1468.5493"/>
</g>
<!-- rd&#45;&gt;nl -->
<g id="edge94" class="edge">
<title>rd-&gt;nl</title>
<path fill="none" stroke="#000000" d="M790.0074,-1411.7028C813.919,-1390.663 855.9009,-1353.7232 880.5034,-1332.0755"/>
<polygon fill="#000000" stroke="#000000" points="882.9339,-1334.5989 888.1294,-1325.3654 878.3098,-1329.3436 882.9339,-1334.5989"/>
</g>
<!-- sk -->
<g id="node54" class="node">
<title>sk</title>
<polygon fill="none" stroke="#000000" points="1038.6476,-1295.373 1002.6476,-1295.373 1002.6476,-1259.373 1038.6476,-1259.373 1038.6476,-1295.373"/>
<polyline fill="none" stroke="#000000" points="1014.6476,-1295.373 1002.6476,-1283.373 "/>
<polyline fill="none" stroke="#000000" points="1002.6476,-1271.373 1014.6476,-1259.373 "/>
<polyline fill="none" stroke="#000000" points="1026.6476,-1259.373 1038.6476,-1271.373 "/>
<polyline fill="none" stroke="#000000" points="1038.6476,-1283.373 1026.6476,-1295.373 "/>
<text text-anchor="middle" x="1020.6476" y="-1273.173" font-family="Times,serif" font-size="14.00" fill="#000000">sk</text>
</g>
<!-- sk&#45;&gt;nl -->
<g id="edge73" class="edge">
<title>sk-&gt;nl</title>
<path fill="none" stroke="#000000" d="M1002.5853,-1282.9943C982.8871,-1289.1248 951.1068,-1299.0154 928.1343,-1306.1649"/>
<polygon fill="#000000" stroke="#000000" points="927.0902,-1302.8242 918.582,-1309.1378 929.1704,-1309.508 927.0902,-1302.8242"/>
</g>
<!-- sk&#45;&gt;bh -->
<g id="edge74" class="edge">
<title>sk-&gt;bh</title>
<path fill="none" stroke="#000000" d="M1029.3882,-1295.4625C1035.0164,-1307.1106 1042.436,-1322.4664 1048.7623,-1335.5592"/>
<polygon fill="#000000" stroke="#000000" points="1045.6322,-1337.1263 1053.1343,-1344.6076 1051.935,-1334.0808 1045.6322,-1337.1263"/>
</g>
<!-- rb&#45;&gt;nl -->
<g id="edge75" class="edge">
<title>rb-&gt;nl</title>
<path fill="none" stroke="#000000" d="M900.7809,-1212.3905C900.6313,-1232.0149 900.3902,-1263.6376 900.2153,-1286.5801"/>
<polygon fill="#000000" stroke="#000000" points="896.7143,-1286.7188 900.1378,-1296.7452 903.7141,-1286.7722 896.7143,-1286.7188"/>
</g>
<!-- rb&#45;&gt;sk -->
<g id="edge76" class="edge">
<title>rb-&gt;sk</title>
<path fill="none" stroke="#000000" d="M919.1028,-1206.9492C939.0573,-1220.7881 971.2772,-1243.1334 994.0654,-1258.9376"/>
<polygon fill="#000000" stroke="#000000" points="992.0803,-1261.8202 1002.2922,-1264.643 996.0696,-1256.0681 992.0803,-1261.8202"/>
</g>
<!-- mt&#45;&gt;dq -->
<g id="edge91" class="edge">
<title>mt-&gt;dq</title>
<path fill="none" stroke="#000000" d="M1377.7752,-515.7948C1365.6482,-538.0932 1345.0649,-575.9402 1331.9748,-600.0094"/>
<polygon fill="#000000" stroke="#000000" points="1328.8983,-598.3405 1327.1953,-608.7976 1335.0477,-601.6849 1328.8983,-598.3405"/>
</g>
<!-- mt&#45;&gt;rc -->
<g id="edge90" class="edge">
<title>mt-&gt;rc</title>
<path fill="none" stroke="#000000" d="M1405.8694,-515.2198C1413.1916,-522.2686 1421.7673,-530.5241 1429.7195,-538.1793"/>
<polygon fill="#000000" stroke="#000000" points="1427.7626,-541.1537 1437.3943,-545.5675 1432.6173,-536.1107 1427.7626,-541.1537"/>
</g>
<!-- hh&#45;&gt;vt -->
<g id="edge87" class="edge">
<title>hh-&gt;vt</title>
<path fill="none" stroke="#000000" d="M540.0544,-311.258C547.2433,-289.469 559.2942,-252.9431 567.3123,-228.6404"/>
<polygon fill="#000000" stroke="#000000" points="570.6663,-229.6451 570.4758,-219.052 564.0188,-227.4519 570.6663,-229.6451"/>
</g>
<!-- hh&#45;&gt;dh -->
<g id="edge88" class="edge">
<title>hh-&gt;dh</title>
<path fill="none" stroke="#000000" d="M515.86,-312.9622C503.7065,-301.8852 487.5343,-287.1455 474.0662,-274.8703"/>
<polygon fill="#000000" stroke="#000000" points="476.2482,-272.1234 466.4997,-267.974 471.5329,-277.297 476.2482,-272.1234"/>
</g>
<!-- ts&#45;&gt;dq -->
<g id="edge93" class="edge">
<title>ts-&gt;dq</title>
<path fill="none" stroke="#000000" d="M1442.1955,-647.9975C1419.4667,-643.232 1380.0389,-634.9652 1352.0865,-629.1044"/>
<polygon fill="#000000" stroke="#000000" points="1352.4995,-625.6149 1341.9941,-626.9883 1351.063,-632.466 1352.4995,-625.6149"/>
</g>
<!-- ts&#45;&gt;gx -->
<g id="edge92" class="edge">
<title>ts-&gt;gx</title>
<path fill="none" stroke="#000000" d="M1471.6938,-633.6844C1477.3339,-624.7488 1484.2513,-613.7893 1490.4953,-603.8969"/>
<polygon fill="#000000" stroke="#000000" points="1493.6064,-605.5252 1495.9843,-595.2006 1487.6869,-601.7889 1493.6064,-605.5252"/>
</g>
<!-- zm&#45;&gt;bn -->
<g id="edge104" class="edge">
<title>zm-&gt;bn</title>
<path fill="none" stroke="#000000" d="M873.8605,-1026.5133C863.2183,-982.0706 833.0537,-856.1011 819.9927,-801.5572"/>
<polygon fill="#000000" stroke="#000000" points="823.352,-800.556 817.6194,-791.646 816.5444,-802.1862 823.352,-800.556"/>
</g>
</g>
</svg>